Results
version=1
nRows=9
nColumns=24
inDegrees=yes
endheader
time	pelvis_tilt	pelvis_list	pelvis_rotation	pelvis_tx	pelvis_ty	pelvis_tz	hip_flexion_r	hip_adduction_r	hip_rotation_r	knee_angle_r	ankle_angle_r	subtalar_angle_r	mtp_angle_r	hip_flexion_l	hip_adduction_l	hip_rotation_l	knee_angle_l	ankle_angle_l	subtalar_angle_l	mtp_angle_l	lumbar_extension	lumbar_bending	lumbar_rotation
      1.04983333	     -1.72858431	      3.52693955	     -1.60119702	      0.53748889	      1.01988091	      0.34053166	     11.41030171	      0.27562848	     -0.58258471	    -15.74801202	      3.26585960	     -4.35682444	     13.36977710	     14.46693388	      3.42313283	     -5.90589601	    -64.04836842	      0.66160717	    -10.11176456	      8.68433073	     -0.56316055	     -3.11708284	      6.11378371
      1.05400000	     -1.69252568	      3.58971552	     -1.93636433	      0.54223030	      1.02038449	      0.34118007	     10.98080159	      0.23846208	     -0.47484129	    -15.48291860	      3.34890335	     -4.07087456	     13.53023918	     14.95340446	      3.42020862	     -6.22634359	    -63.72265902	      0.85178924	    -10.01466798	      8.66487349	     -0.58684654	     -3.17789261	      6.41158811
      1.05816667	     -1.64407631	      3.66631867	     -2.26746695	      0.54693754	      1.02087707	      0.34184905	     10.54443463	      0.18616656	     -0.34576285	    -15.22876973	      3.47731612	     -3.82070669	     13.63734168	     15.41812803	      3.42332916	     -6.54775990	    -63.35457171	      1.01559680	     -9.88519462	      8.65446982	     -0.63003868	     -3.27110445	      6.62143297
      1.06233333	     -1.62703672	      3.72098301	     -2.58982059	      0.55164162	      1.02127681	      0.34247354	     10.14213972	      0.15246275	     -0.21608629	    -14.97565403	      3.57526821	     -3.56912282	     13.75155861	     15.91150784	      3.40296847	     -6.85085935	    -62.96804071	      1.18629494	     -9.78718015	      8.64333584	     -0.63814232	     -3.32204580	      6.87663255
      1.06650000	     -1.58562406	      3.77509897	     -2.91573398	      0.55632527	      1.02169219	      0.34311294	      9.71760304	      0.11673311	     -0.08460982	    -14.72520818	      3.64981544	     -3.34827067	     13.82214698	     16.36598464	      3.37276660	     -7.16545523	    -62.54074326	      1.32542337	     -9.74313214	      8.63693545	     -0.66817303	     -3.38850802	      7.02761785
      1.07066667	     -1.56799485	      3.82881858	     -3.22245531	      0.56097947	      1.02202901	      0.34370453	      9.31658785	      0.07828878	      0.07113063	    -14.47117322	      3.73353390	     -3.13215053	     13.87444071	     16.84324187	      3.35240305	     -7.43712722	    -62.08862052	      1.46622871	     -9.69468580	      8.63316805	     -0.69477780	     -3.43110994	      7.17711857
      1.07483333	     -1.52059079	      3.88191672	     -3.51918471	      0.56564722	      1.02238231	      0.34428545	      8.89191824	      0.02992441	      0.17146193	    -14.24174250	      3.88365385	     -2.88701135	     13.99687628	     17.27161055	      3.32409794	     -7.71198871	    -61.59413023	      1.60825370	     -9.60063473	      8.62250580	     -0.73341375	     -3.49759261	      7.56339989
      1.07900000	     -1.51728060	      3.92911590	     -3.82070775	      0.57028219	      1.02262076	      0.34485960	      8.52134076	     -0.00818165	      0.31485146	    -14.01857657	      3.99119372	     -2.68150082	     14.12481472	     17.74399133	      3.28604581	     -7.98056697	    -61.08034515	      1.72301676	     -9.57029346	      8.61020742	     -0.72848936	     -3.55056333	      7.79649083
      1.08316667	     -1.47408962	      3.96058887	     -4.10826562	      0.57490972	      1.02289834	      0.34541084	      8.09811762	     -0.03650350	      0.45119141	    -13.77922664	      4.08844815	     -2.49755062	     14.24151187	     18.16043196	      3.23271917	     -8.23134129	    -60.53285181	      1.83314817	     -9.53315615	      8.59974794	     -0.77403283	     -3.58396033	      7.98752344
